<svg xmlns="http://www.w3.org/2000/svg" width="900" height="520" viewBox="0 0 900 520"><defs>
<linearGradient id="bg" x1="0" y1="0" x2="1" y2="1"><stop stop-color="#101a2d"/><stop offset="1" stop-color="#192d49"/></linearGradient>
<linearGradient id="accent" x1="0" y1="0" x2="1" y2="1"><stop stop-color="#63c4ff"/><stop offset=".52" stop-color="#9c8bff"/><stop offset="1" stop-color="#46dfc1"/></linearGradient>
<linearGradient id="panel" x1="0" y1="0" x2="0" y2="1"><stop stop-color="#213651"/><stop offset="1" stop-color="#18283e"/></linearGradient>
<filter id="glow"><feGaussianBlur stdDeviation="8"/></filter>
</defs>
<rect width="900" height="520" rx="24" fill="url(#bg)"/>
<circle cx="730" cy="80" r="160" fill="#4388f0" opacity=".08"/>
<circle cx="110" cy="480" r="170" fill="#39d9be" opacity=".06"/>
<rect x="18" y="18" width="864" height="484" rx="18" fill="none" stroke="#49627e" stroke-opacity=".7"/>
<rect x="34" y="34" width="832" height="52" rx="12" fill="#101c2e" stroke="#344c69"/>
<circle cx="60" cy="60" r="13" fill="url(#accent)"/><path d="M60 51v9l6 4" fill="none" stroke="#102039" stroke-width="2.5" stroke-linecap="round"/>
<text x="84" y="57" font-family="Arial,sans-serif" font-size="17" font-weight="700" fill="#f3f7ff">FocusFlow</text>
<text x="84" y="73" font-family="Arial,sans-serif" font-size="9" letter-spacing="2" fill="#8da8c7">FOCUS. PLAN. ACCOMPLISH.</text>
<text x="835" y="64" text-anchor="end" font-family="Arial,sans-serif" font-size="11" fill="#a6bbd3">Workspace  •  Settings</text>
<rect x="34" y="102" width="180" height="382" rx="13" fill="#132238" stroke="#344c69"/>
<text x="54" y="130" font-family="Arial,sans-serif" font-size="10" font-weight="700" letter-spacing="2" fill="#8ea7c5">YOUR WORKSPACE</text>
<rect x="46" y="148" width="156" height="43" rx="9" fill="#25476a" stroke="#5aacf2"/>
<circle cx="65" cy="169" r="7" fill="none" stroke="#82cbff" stroke-width="2"/><text x="82" y="173" font-family="Arial,sans-serif" font-size="12" font-weight="600" fill="#f4f8ff">Focus Timer</text>
<text x="82" y="221" font-family="Arial,sans-serif" font-size="12" fill="#b7c8dc">↻  Intervals</text>
<text x="82" y="260" font-family="Arial,sans-serif" font-size="12" fill="#b7c8dc">▤  Study Plans</text>
<text x="82" y="299" font-family="Arial,sans-serif" font-size="12" fill="#b7c8dc">◎  Daily Focus</text>
<line x1="50" y1="328" x2="198" y2="328" stroke="#344c69"/>
<text x="54" y="352" font-family="Arial,sans-serif" font-size="9" letter-spacing="1.5" fill="#819bb9">TODAY</text>
<text x="54" y="381" font-family="Arial,sans-serif" font-size="20" font-weight="700" fill="#f3f7ff">02h 40m</text>
<text x="54" y="399" font-family="Arial,sans-serif" font-size="10" fill="#8fa7c3">Focused time</text>
<rect x="54" y="416" width="120" height="6" rx="3" fill="#2b4058"/><rect x="54" y="416" width="80" height="6" rx="3" fill="url(#accent)"/>
<text x="54" y="450" font-family="Arial,sans-serif" font-size="9" fill="#819bb9">SAMPLE INTERFACE</text><text x="248" y="132" font-family="Arial,sans-serif" font-size="11" font-weight="700" letter-spacing="2" fill="#79c8ff">STUDY PLAN</text>
<text x="248" y="164" font-family="Arial,sans-serif" font-size="27" font-weight="700" fill="#f3f7ff">Turn study time into a clear plan.</text>
<rect x="248" y="184" width="590" height="276" rx="16" fill="url(#panel)" stroke="#3b5573"/>
<text x="276" y="216" font-family="Arial,sans-serif" font-size="10" letter-spacing="2" fill="#8da8c7">TODAY'S SEQUENCE</text>
<rect x="276" y="236" width="534" height="49" rx="10" fill="#213f61" stroke="#4c91cc"/><circle cx="299" cy="260" r="10" fill="#61b6ff"/><text x="320" y="257" font-family="Arial,sans-serif" font-size="13" font-weight="700" fill="#f4f8ff">Study block</text><text x="320" y="273" font-family="Arial,sans-serif" font-size="9" fill="#9db6d1">Focus on the main topic</text><text x="781" y="265" text-anchor="end" font-family="Arial,sans-serif" font-size="12" fill="#9bd4ff">45 min</text>
<rect x="276" y="296" width="534" height="49" rx="10" fill="#1b333d" stroke="#315e65"/><circle cx="299" cy="320" r="10" fill="#45d5b7"/><text x="320" y="317" font-family="Arial,sans-serif" font-size="13" font-weight="700" fill="#f4f8ff">Short break</text><text x="320" y="333" font-family="Arial,sans-serif" font-size="9" fill="#9db6d1">Reset before the next block</text><text x="781" y="325" text-anchor="end" font-family="Arial,sans-serif" font-size="12" fill="#72e5d0">10 min</text>
<rect x="276" y="356" width="534" height="49" rx="10" fill="#2b2b4b" stroke="#6257a0"/><circle cx="299" cy="380" r="10" fill="#a79aff"/><text x="320" y="377" font-family="Arial,sans-serif" font-size="13" font-weight="700" fill="#f4f8ff">Revision session</text><text x="320" y="393" font-family="Arial,sans-serif" font-size="9" fill="#b1acd6">Revisit notes and practise</text><text x="781" y="385" text-anchor="end" font-family="Arial,sans-serif" font-size="12" fill="#c0b7ff">30 min</text>
<text x="276" y="434" font-family="Arial,sans-serif" font-size="10" fill="#8fa7c3">An illustrative plan layout · durations are configurable.</text></svg>